<!DOCTYPE svg PUBLIC "-//W3C//DTD SVG 1.1//EN" "http://www.w3.org/Graphics/SVG/1.1/DTD/svg11.dtd">
<!-- Uploaded to: SVG Repo, www.svgrepo.com, Transformed by: SVG Repo Mixer Tools -->
<svg fill="#74B04C" height="800px" width="800px" version="1.1" id="Layer_1" xmlns="http://www.w3.org/2000/svg" xmlns:xlink="http://www.w3.org/1999/xlink" viewBox="0 0 512 512" xml:space="preserve" stroke="#74B04C">
<g id="SVGRepo_bgCarrier" stroke-width="0"/>
<g id="SVGRepo_tracerCarrier" stroke-linecap="round" stroke-linejoin="round"/>
<g id="SVGRepo_iconCarrier"> <g> <g> <path d="M256,0c-62.052,0-112.532,50.481-112.532,112.532c0,62.05,50.481,112.532,112.532,112.532s112.532-50.483,112.532-112.532 C368.532,50.481,318.052,0,256,0z"/> </g> </g> <g> <g> <path d="M282.9,280.617v27.155v27.28v114.18c0,3.149-0.568,6.158-1.564,8.967c-3.696,10.439-13.629,17.933-25.336,17.933 s-21.638-7.494-25.336-17.933c-0.995-2.808-1.564-5.818-1.564-8.967v-114.18v-27.28v-27.155 C128.045,293.84,49.765,380.496,49.765,485.1c0,14.854,12.044,26.9,26.9,26.9h358.669c14.856,0,26.9-12.046,26.9-26.9 C462.235,380.498,383.955,293.841,282.9,280.617z"/> </g> </g> </g>
</svg>